<svg width="1440" height="1024" viewBox="0 0 1440 1024" fill="none" xmlns="http://www.w3.org/2000/svg">
<g filter="url(#filter0_f_479_175)">
<path d="M248.65 -40.4689C310.106 -31.9455 338.889 40.2576 300.151 88.722L256.2 143.708C217.892 191.634 142.116 180.375 119.396 123.382L93.6221 58.7262C70.9025 1.73304 118.152 -58.568 178.925 -50.1393L248.65 -40.4689Z" fill="#00FFD6"/>
</g>
<g filter="url(#filter1_f_479_175)">
<path d="M907.325 822.685C986.266 833.778 1023.22 926.489 973.564 988.847L894.582 1088.03C845.321 1149.88 747.613 1135.46 718.331 1062L671.761 945.179C642.479 871.724 703.466 794.036 781.773 805.041L907.325 822.685Z" fill="#00FFD6"/>
</g>
<g filter="url(#filter2_f_479_175)">
<path d="M848.65 -89.4689C910.106 -80.9455 938.889 -8.74241 900.151 39.722L856.2 94.7076C817.892 142.634 742.116 131.375 719.396 74.3822L693.622 9.72624C670.903 -47.267 718.152 -107.568 778.925 -99.1393L848.65 -89.4689Z" fill="#00FFD6"/>
</g>
<g filter="url(#filter3_f_479_175)">
<path d="M155.911 436.232C194.729 484.632 166.066 556.883 104.624 565.508L34.9154 575.294C-25.8436 583.823 -73.1932 523.6 -50.568 466.57L-24.9008 401.871C-2.27554 344.84 73.4817 333.456 111.869 381.319L155.911 436.232Z" fill="#00FFD6"/>
</g>
<g filter="url(#filter4_f_479_175)">
<path d="M118.476 921.67C160.274 858.194 254.806 862.704 290.371 929.871L340.04 1023.68C376.293 1092.14 324.282 1174.05 246.899 1170.36L138.857 1165.2C61.4735 1161.51 17.497 1075.02 60.1027 1010.32L118.476 921.67Z" fill="#00FFD6"/>
</g>
<g filter="url(#filter5_f_479_175)">
<path d="M263.199 457.33C339.274 471.589 371.006 563.154 320.069 621.43L283.017 663.819C232.494 721.622 138.377 703.292 113.238 630.753L94.9531 577.992C69.8145 505.454 132.406 432.815 207.862 446.958L263.199 457.33Z" fill="#00FFD6"/>
</g>
<g filter="url(#filter6_f_479_175)">
<path d="M560.199 610.153C636.274 624.412 668.006 715.976 617.069 774.252L580.017 816.642C529.494 874.444 435.377 856.114 410.238 783.576L391.953 730.815C366.814 658.276 429.406 585.638 504.862 599.781L560.199 610.153Z" fill="#00FFD6"/>
</g>
<g filter="url(#filter7_f_479_175)">
<path d="M1302.47 -67.8765C1357.73 -136.506 1463.81 -131.445 1512.28 -57.8668L1567.21 25.5129C1625.71 114.307 1558.67 231.952 1452.46 226.885L1334.91 221.277C1228.7 216.21 1173.16 92.7171 1239.85 9.89518L1302.47 -67.8765Z" fill="#00FFD6"/>
</g>
<g filter="url(#filter8_f_479_175)">
<path d="M808.802 409.429C823.377 325.41 920.05 284.705 990.334 332.993L1078.18 393.347C1154.43 445.734 1142.59 561.712 1057.33 597.612L951.267 642.272C866.006 678.172 774.774 605.593 790.586 514.443L808.802 409.429Z" fill="#00FFD6"/>
</g>
<g filter="url(#filter9_f_479_175)">
<path d="M472.597 232.279C541.311 175.837 645.383 213.651 661.839 301.037L670.65 347.825C687.423 436.901 600.908 510.397 515.715 479.443L470.115 462.875C384.922 431.921 365.765 320.03 435.807 262.498L472.597 232.279Z" fill="#00FFD6"/>
</g>
<g filter="url(#filter10_f_479_175)">
<path d="M1266.84 795.141C1204.22 756.926 1202.7 666.536 1263.99 626.229L1392.05 542.016C1457.9 498.706 1545.65 545.067 1546.98 623.88L1549.75 787.934C1551.08 866.747 1464.95 916.044 1397.67 874.982L1266.84 795.141Z" fill="#00FFD6"/>
</g>
<defs>
<filter id="filter0_f_479_175" x="83.8203" y="-54.932" width="237.929" height="232.707" filterUnits="userSpaceOnUse" color-interpolation-filters="sRGB">
<feFlood flood-opacity="0" result="BackgroundImageFix"/>
<feBlend mode="normal" in="SourceGraphic" in2="BackgroundImageFix" result="shape"/>
<feGaussianBlur stdDeviation="2" result="effect1_foregroundBlur_479_175"/>
</filter>
<filter id="filter1_f_479_175" x="660.291" y="799.993" width="339.815" height="330.89" filterUnits="userSpaceOnUse" color-interpolation-filters="sRGB">
<feFlood flood-opacity="0" result="BackgroundImageFix"/>
<feBlend mode="normal" in="SourceGraphic" in2="BackgroundImageFix" result="shape"/>
<feGaussianBlur stdDeviation="2" result="effect1_foregroundBlur_479_175"/>
</filter>
<filter id="filter2_f_479_175" x="683.82" y="-103.932" width="237.929" height="232.707" filterUnits="userSpaceOnUse" color-interpolation-filters="sRGB">
<feFlood flood-opacity="0" result="BackgroundImageFix"/>
<feBlend mode="normal" in="SourceGraphic" in2="BackgroundImageFix" result="shape"/>
<feGaussianBlur stdDeviation="2" result="effect1_foregroundBlur_479_175"/>
</filter>
<filter id="filter3_f_479_175" x="-60.3208" y="347.354" width="237.913" height="232.751" filterUnits="userSpaceOnUse" color-interpolation-filters="sRGB">
<feFlood flood-opacity="0" result="BackgroundImageFix"/>
<feBlend mode="normal" in="SourceGraphic" in2="BackgroundImageFix" result="shape"/>
<feGaussianBlur stdDeviation="2" result="effect1_foregroundBlur_479_175"/>
</filter>
<filter id="filter4_f_479_175" x="39.48" y="872.664" width="316.343" height="301.813" filterUnits="userSpaceOnUse" color-interpolation-filters="sRGB">
<feFlood flood-opacity="0" result="BackgroundImageFix"/>
<feBlend mode="normal" in="SourceGraphic" in2="BackgroundImageFix" result="shape"/>
<feGaussianBlur stdDeviation="2" result="effect1_foregroundBlur_479_175"/>
</filter>
<filter id="filter5_f_479_175" x="85.3071" y="441.18" width="263.562" height="260.864" filterUnits="userSpaceOnUse" color-interpolation-filters="sRGB">
<feFlood flood-opacity="0" result="BackgroundImageFix"/>
<feBlend mode="normal" in="SourceGraphic" in2="BackgroundImageFix" result="shape"/>
<feGaussianBlur stdDeviation="2" result="effect1_foregroundBlur_479_175"/>
</filter>
<filter id="filter6_f_479_175" x="382.307" y="594.002" width="263.562" height="260.864" filterUnits="userSpaceOnUse" color-interpolation-filters="sRGB">
<feFlood flood-opacity="0" result="BackgroundImageFix"/>
<feBlend mode="normal" in="SourceGraphic" in2="BackgroundImageFix" result="shape"/>
<feGaussianBlur stdDeviation="2" result="effect1_foregroundBlur_479_175"/>
</filter>
<filter id="filter7_f_479_175" x="1206.9" y="-120.349" width="386.01" height="351.392" filterUnits="userSpaceOnUse" color-interpolation-filters="sRGB">
<feFlood flood-opacity="0" result="BackgroundImageFix"/>
<feBlend mode="normal" in="SourceGraphic" in2="BackgroundImageFix" result="shape"/>
<feGaussianBlur stdDeviation="2" result="effect1_foregroundBlur_479_175"/>
</filter>
<filter id="filter8_f_479_175" x="784.786" y="308.319" width="348.156" height="347.32" filterUnits="userSpaceOnUse" color-interpolation-filters="sRGB">
<feFlood flood-opacity="0" result="BackgroundImageFix"/>
<feBlend mode="normal" in="SourceGraphic" in2="BackgroundImageFix" result="shape"/>
<feGaussianBlur stdDeviation="2" result="effect1_foregroundBlur_479_175"/>
</filter>
<filter id="filter9_f_479_175" x="389.036" y="201.581" width="287.716" height="289.062" filterUnits="userSpaceOnUse" color-interpolation-filters="sRGB">
<feFlood flood-opacity="0" result="BackgroundImageFix"/>
<feBlend mode="normal" in="SourceGraphic" in2="BackgroundImageFix" result="shape"/>
<feGaussianBlur stdDeviation="2" result="effect1_foregroundBlur_479_175"/>
</filter>
<filter id="filter10_f_479_175" x="1214.94" y="521.411" width="338.828" height="372.377" filterUnits="userSpaceOnUse" color-interpolation-filters="sRGB">
<feFlood flood-opacity="0" result="BackgroundImageFix"/>
<feBlend mode="normal" in="SourceGraphic" in2="BackgroundImageFix" result="shape"/>
<feGaussianBlur stdDeviation="2" result="effect1_foregroundBlur_479_175"/>
</filter>
</defs>
</svg>
